<svg width="719" height="151" viewBox="0 0 719 151" fill="none" xmlns="http://www.w3.org/2000/svg">
<path d="M659.66 35.0246C659.63 35.0246 659.597 35.0246 659.562 35.0246C626.645 35.0246 599.963 60.802 599.963 92.6042C599.963 115.409 613.684 135.115 633.588 144.442C641.406 148.405 650.255 150.641 659.645 150.641H719V92.3584C718.899 60.7312 692.387 35.1142 659.66 35.0246ZM694.931 127.067H659.987C659.811 127.076 659.601 127.081 659.391 127.081C658.317 127.081 657.267 126.958 656.266 126.732C655.187 126.401 653.834 126.17 652.433 126.109C636.147 122.608 624.159 108.847 624.047 92.3634C624.047 73.4409 639.912 58.113 659.489 58.113C679.066 58.113 694.931 73.4409 694.931 92.354V127.067Z" fill="#242424" />
<path d="M184.116 35.0246C184.092 35.0246 184.057 35.0246 184.028 35.0246C151.11 35.0246 124.429 60.802 124.429 92.6042C124.429 115.409 138.15 135.115 158.054 144.442C165.873 148.405 174.721 150.641 184.111 150.641H243.466V92.3584C243.369 60.7312 216.849 35.1095 184.116 35.0246ZM219.387 127.067H184.443C184.267 127.076 184.057 127.081 183.847 127.081C182.773 127.081 181.723 126.958 180.722 126.732C179.643 126.401 178.29 126.17 176.888 126.109C160.603 122.608 148.615 108.847 148.502 92.3634C148.502 73.4409 164.368 58.113 183.945 58.113C203.522 58.113 219.387 73.4409 219.387 92.354V127.067Z" fill="#242424" />
<path d="M91.9777 45.219V44.8982C90.0783 43.648 87.9004 42.478 85.6156 41.4967C85.3464 41.393 85.3464 41.3835 85.3464 41.3835C85.3464 41.2137 85.1999 41.0721 85.0241 41.0721H85.0147C84.3507 40.7514 83.3688 40.4305 82.7048 40.1569C76.2149 37.3452 68.6413 35.7034 60.667 35.6893H24.3946V0H0.00302681V93.3396C-0.32903 124.551 26.7043 150.669 59.3436 150.669C92.1536 150.617 118.733 124.905 118.733 93.198C118.733 73.2324 108.19 55.6404 92.193 45.3417L91.9777 45.219ZM59.3339 127.387C39.8889 127.387 24.0576 111.786 24.0576 92.9903V58.9097H60.3251C62.5666 58.9522 64.7249 59.1833 66.8198 59.5891C82.8512 63.0519 94.8447 76.8319 94.9373 93.3346C94.849 112.163 79.0424 127.387 59.5487 127.387C59.4706 127.387 59.3973 127.387 59.3192 127.387H59.3339Z" fill="#242424" />
<path d="M338.89 71.3374C332.416 63.5298 322.542 58.5715 311.476 58.5715C311.378 58.5715 311.285 58.5715 311.188 58.5715C292.08 58.5715 276.258 73.8614 276.258 92.6524V151H251.535L251.867 92.6804C251.867 61.1473 278.901 35.351 311.212 35.351C311.261 35.351 311.315 35.351 311.369 35.351C326.873 35.351 340.971 41.168 351.45 50.6693C345.809 56.057 341.533 63.3738 338.89 71.3374Z" fill="#242424" />
<path d="M583.496 59.8742C590.088 68.9414 594.039 80.2027 594.049 92.3598V150.647H569.989V92.6855C569.989 92.6431 569.989 92.5913 569.989 92.5439C569.989 84.9625 567.508 77.9426 563.285 72.1965C563.362 71.9844 563.031 71.9844 562.698 71.6638C562.318 70.9845 561.756 70.4374 561.072 70.083C560.721 69.753 560.721 69.4324 560.389 69.1585C559.695 68.3282 558.938 67.5971 558.108 66.9458C553.303 62.7849 547.395 59.7751 540.86 58.3692C539.171 58.2607 537.814 58.0295 536.529 57.6521C535.328 57.6804 534.337 57.3597 533.018 57.3597H498.152V137.933C498.816 154.176 473.76 155.771 473.76 137.612V33.4362H533.106C542.487 33.441 551.321 35.6771 559.08 39.6258C568.968 44.0841 577.338 51.0427 583.364 59.6571L583.496 59.8742Z" fill="#242424" />
<path d="M405.485 34.0768C396.08 34.1146 387.222 36.3461 379.423 40.2712C359.49 49.6075 345.778 69.3087 345.778 92.1046C345.778 123.817 372.318 149.542 405.109 149.684C437.431 149.684 464.464 123.887 464.464 92.3548H464.796V34.0816L405.485 34.0768ZM440.097 92.3591C439.956 111.159 424.143 126.35 404.664 126.35C385.093 126.35 369.227 111.022 369.227 92.1139C369.227 75.6349 381.279 61.8735 397.335 58.6135C399 58.5097 400.352 58.2833 401.642 57.9059C402.438 57.7219 403.483 57.6039 404.557 57.6039C404.767 57.6039 404.972 57.6087 405.182 57.6181H440.097V92.3591Z" fill="#242424" />
</svg>
