<?xml version="1.0" encoding="UTF-8"?>
<svg id="Layer_1" data-name="Layer 1" xmlns="http://www.w3.org/2000/svg" viewBox="0 0 163.62 255.84">
  <path d="M42.83.97c7.61-1.38,34.56-1.12,42.77-.23,19.15,2.06,10.23,25.25,12.94,38.06,8.27,2.23,15.79,6.46,17.32,15.68.56,3.36-.54,10.12.74,12.26.78,1.3,9.72,6.17,11.97,8.03,48.1,39.71,31.68,101.75,34.56,156.51-.65,11.47-9.76,22.46-21.49,23.51-37.85,3.38-80.67-2.62-119.05-.03-11.99-1.64-20.73-11.46-21.53-23.47,2.73-40.27-3.59-85.18.16-124.91.9-9.49,5.65-21.11,11.04-28.96,1.56-2.28,8.21-8.97,8.63-10.37,2.08-6.99-2.48-15.74,5.15-22.85,2-1.86,6.11-2.67,6.86-5.14,3.25-10.78-6.84-35.03,9.92-38.08ZM87.1,11.74h-44v27h44V11.74ZM106.1,64.74c.72-10.96-1.3-15.22-12.46-16.04-17.8-1.32-37.63.71-55.61.47-7.7,2.03-7.3,8.89-6.93,15.57h75ZM28.8,74.94c-10.24,8.15-16.6,21.31-17.69,34.31-3.2,38.12,2.39,80.45-.05,119.02,1.03,11.89,6.87,16.5,18.5,17.5,34.31-2.27,72.2,2.89,106.07,0,10.86-.93,16.48-6.84,17.45-17.55,1.96-21.71,1.38-57.92.06-80.03-1.77-29.59-16.88-59.34-43.77-73.23l-80.57-.02Z"/>
  <path d="M133.74,185.38c-5.61,5.54-14.48,6.16-22.03,5.25-11.72-1.41-16.78-9.29-17.65-20.35-1.03-13.08-1.57-43.49.12-55.95,1.59-11.68,11.16-16.39,22.18-14.36,12.5,2.3,21.72,28.12,22.72,39.28.76,8.59,1.04,27.68.04,36.01-.39,3.26-3.08,7.85-5.38,10.12ZM110.85,108.92c-3.36.28-6.33,2.99-6.69,6.37,1.73,17.41-2.56,40.12,0,56.88,1.83,11.99,23.51,11.73,25.71.83,1.89-9.4.08-29.7-2.27-39.27-1.67-6.83-7.93-25.56-16.75-24.81Z"/>
</svg>