<?xml version="1.0" encoding="UTF-8"?>
<svg id="Layer_1" data-name="Layer 1" xmlns="http://www.w3.org/2000/svg" viewBox="0 0 235.18 271.96">
  <path d="M230.76,44.38c2.65,2.8,3.12,7.43,3.38,11.12,1.59,21.88,1.18,53.98,0,76.08-3.08,57.64-43.69,106.24-93.83,131.17-5.87,2.92-19.63,10.31-25.49,9.07-6.55-1.39-24.87-11.72-31.4-15.61C36.55,228.26,3.66,183.41,1.06,127.58c-.96-20.57-1.8-52.01,0-72.08,1.56-17.36,16.91-14.94,30.26-18.74,21.18-6.03,41.44-14.08,61.14-23.86,5.61-2.79,17.01-11,21.59-12.4,7.75-2.37,13.85,4.33,20.38,7.71,23.17,12.02,44.5,21.03,69.67,28.33,6.26,1.81,23.09,4.07,26.66,7.84ZM116.84,11.21C84.8,30.69,49.4,44.59,12.53,51.97c.5,26.97-2.14,55.83-.48,82.62,3.53,57.04,54.38,107.22,105.55,126.51,56.99-21.19,103.24-71.89,106.54-134.52,1.02-19.35,1.72-50.18,0-69.09-.22-2.43-.21-5.08-2.77-6.23-36.11-7.29-70.89-20.65-102.26-39.83l-2.27-.22Z"/>
  <path d="M163.82,97.24c6.31-1.44,10.43,3.47,7.15,9.18l-57.35,66.64c-2.41,2.75-4.92,4.61-8.79,3.81-5.85-1.22-30.84-31.14-37.54-36.54-1.9-6.23,3.95-10.29,9.55-7.53l29.75,29.22,57.22-64.78Z"/>
</svg>