<?xml version="1.0" encoding="UTF-8"?>
<svg id="Layer_1" data-name="Layer 1" xmlns="http://www.w3.org/2000/svg" viewBox="0 0 286.95 219.06">
  <path d="M195.16,49.2h47.5c.42,0,4.17,2.43,4.92,3.08l38.14,47.86c-.91,23.43,2.73,50.58.49,73.61-1.6,16.53-18.91,13.39-31.05,13.44-3.55,42.75-65.54,42.18-70.04.05l-80.51-.1-3,1c-6.12,41.53-65,41.12-70.55-.86-9.65-.61-23.08,2.62-28.77-7.73-3.36-6.11-.92-8.67-1.09-13.82-1.33-39.37.13-79.02,0-118C1.16,33.28-5.48,7.51,12.89,1.43,68.49-1.43,124.82,1.04,180.69.18c4.41-.2,14.48,7.6,14.48,11.52v37.5ZM185.16,177.2V15.7c0-2.29-5.73-6.45-8.45-5.55l-157.07.02c-3.43.08-6.06,2.47-7.72,5.28l-.26,158.74c2.18,4.57,15.16,3,19.57,2.57,4.36-26.3,32.71-38.77,55.27-24.41,9.63,6.13,12.5,14.58,16.16,24.84h82.5ZM238.66,59.2h-42l-1.5,1.5v96.5c20.68-20.91,57.09-9.54,60.01,20,8.55-1.18,19.96,4.29,21.04-7.45,1.87-20.31-1.12-43.97-.49-64.6l-37.06-45.94ZM61.9,157.45c-27.03,4.33-26.88,47.06.84,50.67,37.86,4.93,37.82-56.86-.84-50.67ZM216.92,157.47c-27.7,3.79-28.69,45.32-1.8,50.28,38.93,7.19,39.68-55.47,1.8-50.28Z"/>
  <path d="M214.88,94.42c5.49-1.21,39.61-1.08,45.72-.15,7.33,1.13,5.4,9.91.04,10.91-13.64-1.48-31.86,2.1-44.92-.03-7.27-1.19-7.61-9.24-.84-10.73Z"/>
</svg>