<?xml version="1.0" encoding="UTF-8"?>
<svg id="Layer_1" data-name="Layer 1" xmlns="http://www.w3.org/2000/svg" viewBox="0 0 279.52 237.36">
  <path d="M257.88,91.1c26.36,8.08,29.35,44.72,5.02,57.52,6.28,5.11,10.21,12.73,10.06,20.99-.06,3.18-2.37,8.44-1.87,10.78.37,1.76,3.99,5.86,4.98,8.05,9.07,20.07-2.73,41.5-23.15,47.21-72.21,3.38-145.07.54-217.52,1.45-23.99-1.97-41.92-26.06-30.07-49.04,1.2-2.32,4.97-5.82,5.35-7.68.48-2.34-1.89-8.21-1.88-11.77.02-8.9,4.23-14.5,10.08-20.49-27.63-9.23-23.48-49.45,3-57.03-14.45-20.38-6.23-42.43,6.19-61.29C38.34,14.22,54.58,3.36,73.35,1.08c44.19,2.68,92.35-3.45,136.07,0,25.86,2.04,44.1,23.79,52.21,46.79,5.68,16.12,5.34,28.31-3.75,43.23ZM72.64,11.38C40.62,15.39,1.86,74.49,42.33,93.17l191.05.95c45.5-15.49,9.82-79.91-26.97-83.04-42.63-3.63-90.61,2.57-133.78.29ZM28.67,100.34c-23.04,2.28-24.28,37.3-1.29,39.79,13.74,1.49,28.31-.92,41.95-1.05,51.28-.49,102.82-.65,154.1,0,14.59.18,36.16,6.9,43.64-10.27,4.43-10.17.29-21.99-9.81-26.56-10.43-4.72-13.65,1.15-23.83,1.92-60.64,4.53-126.86-3.52-188.09,0-5.9-.2-10.77-4.41-16.67-3.83ZM78.68,149.41c-12.35.26-28.49-.47-40.28.72-23.51,2.36-25.8,33.48-1,35.98h206.98c12.57-1.44,21.83-10.76,16.71-23.69-6.21-15.68-23.42-11.68-36.74-12.26-48.19-2.08-97.32-1.75-145.66-.75ZM17.48,189.18c-13.18,16.67.82,36.03,19.91,37.93h204.97c18.79-.69,34.7-21.7,21.03-37.93-2.29,1.33-4.35,3.12-6.83,4.13-9.82,4-40.66,1.64-53.23,1.76-47.29.48-95.28,1.01-142.92,0-15.04-.32-29.78,3.13-42.94-5.9Z"/>
</svg>