<?xml version="1.0" encoding="UTF-8"?>
<svg id="Layer_1" data-name="Layer 1" xmlns="http://www.w3.org/2000/svg" viewBox="0 0 273.16 233.97">
  <path d="M140.88,1.29c.75.75,3.23,16.39,4.48,20.02,6.17,17.96,19.22,28.47,36.96,34.04,3.85,1.21,11.73.21,11.72,6.2s-8.74,5.32-13.13,6.79c-16.43,5.49-30,17.9-35.55,34.45-1.59,4.74-2.83,18.23-6.27,19.77-2.03.9-5.11.39-6.42-1.56-1.44-2.14-2.99-15.74-5.06-20.94-7.56-18.92-24.93-31.09-44.87-34.13-3.26-1.71-3.9-6.15-.56-8.33,25.97-4.22,41.86-19.43,48.48-44.52.77-2.93.81-9.62,2.38-11.61s6.24-1.79,7.86-.17ZM170.11,61.06c-9.32-2.83-16.49-9.62-23.02-16.49l-10.96-17.52c-4.93,15.28-16.75,28.53-32.01,34.01,3.9,3.68,9.21,5.59,13.48,9.01,8.2,6.56,16.01,16.63,18.53,26.98.85.66,4.75-8.55,5.57-9.92,6.43-10.69,15.67-20.11,27.76-24.08l.65-1.98Z"/>
  <path d="M271.88,177.81c-1.37,1.35-6.21,1.23-8.56,1.94-16.76,5.06-30.98,16.17-36.97,33.03-1.84,5.17-2.26,15.18-3.72,18.28-.6,1.28-3.54,2.91-5,2.92-6.9-1.02-4.67-6.65-5.76-11.17-4.49-18.71-16.36-35.51-35.21-41.79-5.88-1.96-15.61-.48-14.56-8.41.57-4.3,11.32-5.02,15.54-6.54,15.35-5.5,27.86-18.94,32.42-34.58,1.96-6.71,1.51-23.58,11.87-14.75,2.48,22.29,13.98,41.55,35.67,49.33,3.31,1.19,12.48,2.58,14.09,3.9,2.04,1.68,1.84,6.22.19,7.84ZM251.11,173.06c-15.85-4.49-27.1-18.38-33.5-33.02-5.92,14.72-17.28,27.66-32.5,33.02,10.65,7,19.86,12.63,26.8,23.69,2.23,3.55,3.59,7.71,5.7,11.31,4.43-10.07,10.84-19.57,19.58-26.43,4.42-3.47,9.57-5.29,13.92-8.57Z"/>
  <path d="M43.82,90.24c2.21-.67,4.85-.61,6.23,1.38s2.75,13.88,4.59,18.41c3.86,9.51,10.92,17.32,20.1,21.9,3.58,1.78,16.06,4.49,16.88,6.11,4.38,8.67-6.08,7.69-10.73,9.29-12.32,4.23-22.53,13.67-26.96,26.04-1.51,4.2-1.84,11.79-3.34,14.66-1.78,3.4-7.39,3.18-8.98.04s-1.84-11.88-4.01-16.99c-4.56-10.76-13.48-18.59-24.23-22.77-4.45-1.73-13.11-1.68-13.36-6.74-.35-6.89,7.47-5.64,12.64-7.47,14.23-5.02,22.99-16.91,27-31,.97-3.4.44-11.71,4.17-12.84ZM47.1,115.04c-2.34-.5-1.6.32-2.23,1.29-6.32,9.74-9.94,19.82-22.76,23.73-1.65,1.76,4.48,3.55,5.91,4.58,7.47,5.37,14.43,12.39,17.1,21.4l2.05-.61c4.33-10.02,12.79-21.14,23.93-23.4l-.62-2.06c-10.75-4.31-20.47-13.66-23.4-24.93Z"/>
</svg>