<?xml version="1.0" encoding="UTF-8"?>
<svg id="Layer_1" data-name="Layer 1" xmlns="http://www.w3.org/2000/svg" viewBox="0 0 287.39 254.04">
  <path d="M101.54,45.76c-4.54-4.52,1.98-20.21,4.96-25.06,14.77-24.05,50.33-28.48,68.78-6.18,20.4,24.66,6.36,63.41-25.54,68.42l-.25,18.37,121.73,85.27c27.6,20.31,18.58,64.63-17.38,67.45H33.77c-28.78-2.91-42.96-32.75-27.3-57.37,7.06-11.1,44.56-34.46,57.52-43.48,24.63-17.13,49.81-33.49,74.42-50.65-.61-4.11.78-8.11.9-12.03.06-2.05-1.11-4.38-1.08-6.99.15-12.46,6.81-10.05,15.05-13.04,20.65-7.48,27.07-33.76,12.05-50s-42.57-10.19-50.88,10.17c-1.49,3.66-2.94,13.54-4.05,14.94-1.66,2.1-7.18,1.84-8.86.17ZM143.99,112.16L19.82,198.01c-14.33,14.45-10.28,38.09,9.67,44.31l224.36.72c22.4-2.78,29.22-28.56,14.45-44.53l-124.31-86.35Z"/>
</svg>