<?xml version="1.0" encoding="UTF-8"?>
<svg id="Layer_1" data-name="Layer 1" xmlns="http://www.w3.org/2000/svg" viewBox="0 0 287.03 173.32">
  <path d="M15.05,163.39h205c-1.59-6.13-3.97-13.33-2.25-19.55l-2.25-1.46-207.05.05c-9.54-1.07-8.82-5.96-5.97-13.07C26.46,69.62,87.91,5.17,155.5,1.34c25.18-1.43,65.33-2.11,90.08.01,8.29.71,12.08,2.98,15.18,10.82,7.89,19.97,14.7,52.98,20.21,74.79,1.7,6.75,7.16,23.94,5.86,29.71-1.78,7.89-15.7,5.82-22.27,6.72-14.49,1.99-36.54,3.43-37.46,22.63-.37,7.65,9.15,25.6-1.62,27.29H4.62s-4.07-1.92-4.07-1.92c-2.8-4.75,5.96-16.15,9.51-19.51,4.89-4.64,10.56-1.98,8.76,4.75-.63,2.36-3.86,4.04-3.76,6.75ZM13.05,132.39h207.5c12.06-18.75,36.85-17.48,56.5-20.01l-25.94-96.55c-1.02-3.24-4.33-4.62-7.51-4.49-28.88,1.45-59.36-1.79-88.04.06C91.11,15.55,37.07,76.73,13.05,132.39Z"/>
  <path d="M154.85,36.69c13.02-1.18,27.37.78,40.75.75,9.43-.02,24.81-4,31.29,5.61,4.31,6.39,4.67,29.16,1.03,35.7-1.38,2.48-7.08,7.45-9.84,8.16s-10.16,1.26-13.54,1.46c-22.77,1.36-60.75,2.12-83.03.05-11.77-1.09-11.07-7.3-8.59-16.66,5.42-20.47,21.05-33.18,41.93-35.08ZM122.05,77.39h92.5c6.94,0,6.06-18.85,5.52-23.52s-1.97-6.09-6.46-6.54c-14.95-1.47-45.98-1.28-61.09.02-15.91,1.37-27.28,15.15-30.46,30.04Z"/>
</svg>