<?xml version="1.0" encoding="UTF-8"?>
<svg id="Layer_1" data-name="Layer 1" xmlns="http://www.w3.org/2000/svg" viewBox="0 0 228.04 280.02">
  <path d="M20.76.25l184.73-.25c12.64,1.21,21.52,12.22,22.55,24.45v231.07c-1.22,14.06-11.57,23.52-25.5,24.5H25.47c-11.47-.99-21.12-7.14-24.78-18.22L0,21.49C1.77,10.73,9.99,2.14,20.76.25ZM217,53.99V21.49c0-3.6-9.9-12.44-14.5-11.5-60.53.8-121.52-1.6-181.79,1.22-4.71,1.21-10.71,8.68-10.71,13.29v29.5h207ZM217,63.99H11.5l-1.5,1.5v190c0,8.28,10.8,14.84,18.46,14.54l173.02-.05c4.96,1.09,15.51-7.3,15.51-11.49V63.99Z"/>
  <path d="M103.78,93.27c58.86-6.64,102.15,49.05,82.51,104.51-19.55,55.21-94.51,66.5-131.8,22.23-38.09-45.24-9.89-120.06,49.29-126.74ZM102.76,104.24c-25.27,3.17-46.83,26.29-52.68,50.32-13.45,55.24,42.37,100.14,93.44,75.44,65.27-31.57,38.22-135.66-40.76-125.76Z"/>
  <path d="M84.76,29.23c1.72,1.72,1.68,7.51-.43,8.84-1.2.61-2.49.78-3.82.92-9.86,1.06-37.39,1.24-46.96-.09-6.86-.96-5.99-10.07.89-10.96,9.91-1.27,34.74-.87,45.09.01,1.55.13,4.11.17,5.22,1.28Z"/>
  <path d="M157.74,26.16c12.65-2.58,12.08,18.96-1.8,14.38-6.33-2.09-4.79-13.03,1.8-14.38Z"/>
  <path d="M187.77,26.17c9.4-1.22,11.4,12.79,3.52,14.6-11.9,2.73-13.68-13.29-3.52-14.6Z"/>
  <path d="M75.01,152.98c4.4-1.05,7.67-2.35,12.37-1.89,6.54.63,14.04,6.95,18.12,6.95s10.26-7.33,17.99-8.06,11.59,3.1,18.09,3.92c7.8.98,18.86-4.2,24.27,4.74,6.75,11.15-1.79,35.55-9.43,45.27-28.73,36.54-85.72,22.45-94.97-22.86-5.02-24.6,7.84-50.09,30.88-60.22,5.09-2.24,23.36-8.01,24.5-.09,1.09,7.53-10.38,6.46-15.63,7.96-11.05,3.16-22.56,13.27-26.19,24.3ZM71.17,166.15c-2.16,31.74,27.61,56.55,58.35,44.86,18.19-6.92,30.52-27.45,26.55-46.58-5.68-1.4-10.6,1.26-16.48.47-4.16-.56-7.73-3.61-12.1-3.93-9.22-.68-12.45,7.26-19.97,8.05-9.26.97-12.68-6.33-21.02-7.04-6.1-.52-10.04,1.8-15.33,4.17Z"/>
</svg>