<?xml version="1.0" encoding="UTF-8"?>
<svg id="Layer_1" data-name="Layer 1" xmlns="http://www.w3.org/2000/svg" viewBox="0 0 165.26 276.3">
  <path d="M88.14,243.14c-1.02,1.05.99,24.86-.27,29.24s-9.95,6.1-10.83-.74c-.54-4.2.86-27.36-.06-28.44-39.59-4.09-66.31-27.02-74.4-66.1C-11.52,108.94,34.88,49.15,77.57,2.07c4.01-3.27,6.78-2.32,10.54.5,6.65,4.99,17.74,17.82,23.49,24.51,17.67,20.53,36.58,47.82,45.52,73.48,20.39,58.5,4.25,138.41-68.98,142.59ZM88.09,232.09c54.63-1.88,72.2-57.97,64.84-104.34-7.04-44.37-39.21-83.38-69.48-114.58-9.47,8.41-17.92,18.88-25.76,29.03C28.52,79.97,1.85,127.45,13.58,177.09c7.46,31.56,30.54,53.04,63.51,54.99v-33c0-.17-1.85-.3-3.02-1.43-8.89-8.66-18.11-17.45-26.45-26.6-2.44-2.68-4.63-1.44-4.64-6.46s3.25-6.62,8.09-4.98c8.33,6.1,15.28,18.06,23.01,23.98,1.01.77,1.26,1.93,3.01,1.49v-45.5l-28.05-26.94c-3.26-5.41.96-10.83,7.03-8.03,5.13,2.36,14.85,17.24,21.02,20.48v-51.5c0-4.56,11-4.56,11,0v51.5c6.16-3.24,15.89-18.12,21.02-20.48,6.07-2.79,10.29,2.62,7.03,8.03l-28.05,26.94v45.5c2.45-.08,4.44-2.83,6.03-4.47,6.36-6.61,12.47-13.81,18.67-20.58,5.9-3.12,11.99,1.36,8.36,7.61-.84,1.45-9.45,10.21-11.54,12.46-6.69,7.2-14,14.13-21.51,20.49v31.5Z"/>
</svg>