<?xml version="1.0" encoding="UTF-8"?>
<svg id="Layer_1" data-name="Layer 1" xmlns="http://www.w3.org/2000/svg" viewBox="0 0 399.55 211.66">
  <path d="M43.87,23.49c1.73-12.93,14.04-22.33,26.51-23.49h208.98c7.89,1.24,15.5,4.18,21.52,9.48,3.35,2.94,20.29,25.64,20.94,29.07.21,1.13.04,2.31.05,3.44-2.74-.28-6.53.71-9.01-.49-2-.97-14.08-20.5-18.47-24.53-3.62-3.33-9.07-6.42-14.02-6.98l-213.53.47c-7.76,2.8-12.13,8.83-12.96,17.04,2.32,44.41-3.13,92-.05,136.03.49,7.08,3.2,12.52,11,12.42,4.95-44.92,65.84-43.84,69.62,1.09l149.79-.19c1.58-.53,3.2-10.56,4.45-13.55,8.21-19.59,32.77-26.66,50.51-15.16,10.13,6.56,14.12,16.74,15.6,28.4,6.1.94,29.79.77,32.97-4.17,1.41-2.2,1.8-22.84.66-24.46-3.1-1.88-7.13-.51-10.83-1.17-12.6-2.23-16.8-24.72-4.17-26.71,2.58-.41,5.46.27,7.96-.05,1.39-.18,1.73.54,1.46-1.48-6.48-10.76-21.22-11.05-30.48-18.53l-31.01-41.99h-36c-2.9,0-3.23-7.47,0-9h40c.29,0,3.9,2.14,4.54,2.75,10.21,9.78,19.41,32.14,29.94,40.78,12.86,10.55,27.73,6.92,34.75,27.25,4.16,12.05,6.13,40.23,4.21,52.66-2.61,16.86-33.92,13.04-45.82,13.68-6.29,28.07-43.54,34.45-60.64,11.9-2.65-3.49-4.24-11.51-6.97-12.03l-150.07-.04c-4.04.5-5.42,7.85-8.21,11.79-13.05,18.43-42.39,18.16-55.66.2-1.71-2.32-5.02-11.1-5.55-11.45-1.19-.79-8.21-1.68-11.03-2.96-3.88-1.76-7.8-5.75-9.23-9.78-.34-.96-1.76-6.71-1.76-7.24v-66.5H2.37c-3.71,0-3.1-10,2-10h39.5v-16H13.37c-5.4,0-4.54-10-1-10h31.5c1.22-12.63-1.64-28.24,0-40.5ZM385.82,125.04c-7.01.27-15.35-2.83-13.9,7.37,1.28,9.04,8.84,7.77,15.95,7.57l-2.05-14.94ZM95.61,153.23c-32.21,5.06-22.53,57.13,11.08,47.07,27.4-8.2,18.74-51.76-11.08-47.07ZM316.63,153.26c-26.78,3.64-26.26,44.17-1.17,47.65,38.17,5.29,36.98-52.52,1.17-47.65Z"/>
  <path d="M330.87,92.99l-22.99-31.52c-.93-2.39,5.88-2.79,6.92-.93,7.55,10.11,14.95,20.4,22.64,30.4,1.53,1.99,5.24,2.62,4.27,6.34-.18.71-2.04,2.71-2.35,2.71h-52l-2.34-3.68c-.29-1.04,2.02-3.32,2.34-3.32h43.5Z"/>
  <g>
    <path d="M226.87,127.98c-20.73,6.77-40.45,3.18-30.77-23.27,3-8.21,9.77-15.27,13.31-22.69,1.73-3.63,3.57-7.4,1.54-11.37-1.69-1.78-3.81-1.93-6.02-1.16-12.43,4.32-17.59,43.07-34.83,51.23-18.58,8.79-23.98-11-33.26-21.2-2.27-2.5-4.93-6.6-8.07-3.09-1.63,2.07,1.98,14.94,2.14,19.01s.47,9.31-2.54,12.53c-7.58-6.79-17.32-10.22-27.5-9.99,6.75-8.18,9.03-17.08,9.99-27.5.58-6.31-1.96-25.24,9.44-24.48s14.92,40.01,35.84,35.77c19.11-3.87,22.42-57.73,54.26-53.8,19.35,2.39,8.24,25.87,6.57,36.62-1.56,10.08-1.03,21.54,2.72,31.08l7.18,12.31Z"/>
    <path d="M172.86,72.99c.51.57-5.92,12.32-6.8,13.69-5.02,7.85-10.77,13.84-20.34,7.95-10.78-6.63-12.42-33.02-24.6-35.42-2.75-.54-4.92-.6-6.77,1.78-.88-3.51,4.99-9.51,8.46-10.54,26.34-7.77,23.9,39.48,50.03,22.54Z"/>
  </g>
</svg>